<svg xmlns="http://www.w3.org/2000/svg" xmlns:xlink="http://www.w3.org/1999/xlink" version="1.1" id="Layer_1" x="0px" y="0px" width="100px" height="100px" viewBox="0 0 100 100" enable-background="new 0 0 100 100" xml:space="preserve">
  <path d="M50,8.201C26.916,8.201,8.201,26.915,8.201,50c0,23.085,18.714,41.799,41.799,41.799c23.085,0,41.799-18.714,41.799-41.799  C91.799,26.915,73.085,8.201,50,8.201z M65.79,32.708c4.228,0,7.654,3.428,7.654,7.655c0,4.228-3.427,7.655-7.654,7.655  c-4.229,0-7.655-3.427-7.655-7.655C58.135,36.136,61.562,32.708,65.79,32.708z M34.21,32.708c4.228,0,7.656,3.428,7.656,7.655  c0,4.228-3.428,7.655-7.656,7.655c-4.227,0-7.655-3.427-7.655-7.655C26.556,36.136,29.983,32.708,34.21,32.708z M43.523,53.705  c3.398,0,5.375,2.1,5.746,2.532c0.371,0.434,1.235,0.618,1.792,0c0.556-0.618,3.892-2.532,6.239-2.532  c9.885,0,12.479,11.984,20.571,11.984c4.046,0,4.654-1.277,4.654-3.068c0-2.348-2.183-3.418-3.542-3.418  c-0.603,0-1.174-0.062-1.668,0.494s-1.297,0.494-1.111-0.494c0.185-0.988,1.358-1.668,2.964-1.668c2.204,0,5.293,1.874,5.293,5.024  s-4.058,10.11-17.524,10.11c-10.914,0-15.382-4.51-15.938-5.374c-0.556-0.865-0.988-0.741-1.606-0.124  c-0.618,0.618-5.869,5.498-15.753,5.498c-9.884,0-18.1-3.83-18.1-8.896c0-5.066,3.954-6.239,5.869-6.239s2.78,1.235,2.78,2.1  c0,0.865-0.849,0.572-1.297,0.124c-0.185-0.186-0.494-0.494-1.359-0.494c-0.865,0-3.151,1.359-3.151,3.15  c0,1.792,1.426,2.993,3.831,3.15C31.663,66.184,32.589,53.705,43.523,53.705z" fill="#ffffff"/>
</svg>
